{
	"asset":{
		"generator":"Khronos glTF Blender I/O v4.0.43",
		"version":"2.0"
	},
	"scene":0,
	"scenes":[
		{
			"name":"Scene",
			"nodes":[
				0
			]
		}
	],
	"nodes":[
		{
			"mesh":0,
			"name":"Ball",
			"scale":[
				0.22177541255950928,
				0.22177541255950928,
				0.22177541255950928
			]
		}
	],
	"materials":[
		{
			"doubleSided":true,
			"name":"Main_colour",
			"pbrMetallicRoughness":{
				"baseColorFactor":[
					0.08593618124723434,
					0.08593618124723434,
					0.08593618124723434,
					1
				],
				"metallicFactor":0,
				"roughnessFactor":0.5
			}
		},
		{
			"doubleSided":true,
			"name":"Dark_colour",
			"pbrMetallicRoughness":{
				"baseColorFactor":[
					0.015459278598427773,
					0.015459278598427773,
					0.015459278598427773,
					1
				],
				"metallicFactor":0,
				"roughnessFactor":0.5
			}
		},
		{
			"doubleSided":true,
			"name":"Highlights_colour",
			"pbrMetallicRoughness":{
				"baseColorFactor":[
					0.5678625702857971,
					0.5678625702857971,
					0.5678625702857971,
					1
				],
				"roughnessFactor":0.5
			}
		},
		{
			"doubleSided":true,
			"name":"BallEmissive",
			"pbrMetallicRoughness":{
				"baseColorFactor":[
					0.800000011920929,
					0.800000011920929,
					0.800000011920929,
					1
				],
				"metallicFactor":0,
				"roughnessFactor":0.5
			}
		}
	],
	"meshes":[
		{
			"name":"Cube",
			"primitives":[
				{
					"attributes":{
						"POSITION":0,
						"NORMAL":1
					},
					"indices":2,
					"material":0
				},
				{
					"attributes":{
						"POSITION":3,
						"NORMAL":4
					},
					"indices":5,
					"material":1
				},
				{
					"attributes":{
						"POSITION":6,
						"NORMAL":7
					},
					"indices":8,
					"material":2
				},
				{
					"attributes":{
						"POSITION":9,
						"NORMAL":10
					},
					"indices":11,
					"material":3
				}
			]
		}
	],
	"accessors":[
		{
			"bufferView":0,
			"componentType":5126,
			"count":1282,
			"max":[
				1.6987295150756836,
				1.6987295150756836,
				1.6775823831558228
			],
			"min":[
				-1.6987295150756836,
				-1.6987295150756836,
				-1.6775823831558228
			],
			"type":"VEC3"
		},
		{
			"bufferView":1,
			"componentType":5126,
			"count":1282,
			"type":"VEC3"
		},
		{
			"bufferView":2,
			"componentType":5123,
			"count":6312,
			"type":"SCALAR"
		},
		{
			"bufferView":3,
			"componentType":5126,
			"count":576,
			"max":[
				1.754390001296997,
				1.754390001296997,
				1.6775823831558228
			],
			"min":[
				-1.754390001296997,
				-1.754390001296997,
				-1.6775823831558228
			],
			"type":"VEC3"
		},
		{
			"bufferView":4,
			"componentType":5126,
			"count":576,
			"type":"VEC3"
		},
		{
			"bufferView":5,
			"componentType":5123,
			"count":2208,
			"type":"SCALAR"
		},
		{
			"bufferView":6,
			"componentType":5126,
			"count":1462,
			"max":[
				1.7209563255310059,
				1.7209563255310059,
				1.4632431268692017
			],
			"min":[
				-1.7209563255310059,
				-1.7209563255310059,
				-1.4632431268692017
			],
			"type":"VEC3"
		},
		{
			"bufferView":7,
			"componentType":5126,
			"count":1462,
			"type":"VEC3"
		},
		{
			"bufferView":8,
			"componentType":5123,
			"count":4776,
			"type":"SCALAR"
		},
		{
			"bufferView":9,
			"componentType":5126,
			"count":470,
			"max":[
				1.3137205839157104,
				1.3137221336364746,
				1.705344557762146
			],
			"min":[
				-1.3137205839157104,
				-1.3137223720550537,
				-1.705344557762146
			],
			"type":"VEC3"
		},
		{
			"bufferView":10,
			"componentType":5126,
			"count":470,
			"type":"VEC3"
		},
		{
			"bufferView":11,
			"componentType":5123,
			"count":1968,
			"type":"SCALAR"
		}
	],
	"bufferViews":[
		{
			"buffer":0,
			"byteLength":15384,
			"byteOffset":0,
			"target":34962
		},
		{
			"buffer":0,
			"byteLength":15384,
			"byteOffset":15384,
			"target":34962
		},
		{
			"buffer":0,
			"byteLength":12624,
			"byteOffset":30768,
			"target":34963
		},
		{
			"buffer":0,
			"byteLength":6912,
			"byteOffset":43392,
			"target":34962
		},
		{
			"buffer":0,
			"byteLength":6912,
			"byteOffset":50304,
			"target":34962
		},
		{
			"buffer":0,
			"byteLength":4416,
			"byteOffset":57216,
			"target":34963
		},
		{
			"buffer":0,
			"byteLength":17544,
			"byteOffset":61632,
			"target":34962
		},
		{
			"buffer":0,
			"byteLength":17544,
			"byteOffset":79176,
			"target":34962
		},
		{
			"buffer":0,
			"byteLength":9552,
			"byteOffset":96720,
			"target":34963
		},
		{
			"buffer":0,
			"byteLength":5640,
			"byteOffset":106272,
			"target":34962
		},
		{
			"buffer":0,
			"byteLength":5640,
			"byteOffset":111912,
			"target":34962
		},
		{
			"buffer":0,
			"byteLength":3936,
			"byteOffset":117552,
			"target":34963
		}
	],
	"buffers":[
		{
			"byteLength":121488,
			"uri":"Gravity.bin"
		}
	]
}
