{
	"asset":{
		"generator":"Khronos glTF Blender I/O v3.6.27",
		"version":"2.0"
	},
	"scene":0,
	"scenes":[
		{
			"name":"Scene",
			"nodes":[
				0,
				1,
				2
			]
		}
	],
	"nodes":[
		{
			"mesh":0,
			"name":"Wall_L"
		},
		{
			"mesh":1,
			"name":"Bridge"
		},
		{
			"mesh":2,
			"name":"Window"
		}
	],
	"materials":[
		{
			"doubleSided":true,
			"name":"Main_colour",
			"pbrMetallicRoughness":{
				"baseColorFactor":[
					0.08593618124723434,
					0.08593618124723434,
					0.08593618124723434,
					1
				],
				"metallicFactor":0,
				"roughnessFactor":0.5
			}
		},
		{
			"doubleSided":true,
			"name":"Dark_colour",
			"pbrMetallicRoughness":{
				"baseColorFactor":[
					0.015459278598427773,
					0.015459278598427773,
					0.015459278598427773,
					1
				],
				"metallicFactor":0,
				"roughnessFactor":0.5
			}
		},
		{
			"doubleSided":true,
			"name":"Highlights_colour",
			"pbrMetallicRoughness":{
				"baseColorFactor":[
					0.5678625702857971,
					0.5678625702857971,
					0.5678625702857971,
					1
				],
				"roughnessFactor":0.5
			}
		},
		{
			"doubleSided":true,
			"emissiveFactor":[
				0.7991026043891907,
				0.7681508660316467,
				0
			],
			"name":"Window_Emissive",
			"pbrMetallicRoughness":{
				"baseColorFactor":[
					0.7991026043891907,
					0.7681508660316467,
					0,
					1
				],
				"metallicFactor":0,
				"roughnessFactor":0.6090909242630005
			}
		},
		{
			"doubleSided":true,
			"name":"Glass",
			"pbrMetallicRoughness":{
				"baseColorFactor":[
					0.0784313827753067,
					0.1411765068769455,
					0.1568627953529358,
					0.25
				],
				"roughnessFactor":0.2318854182958603
			}
		}
	],
	"meshes":[
		{
			"name":"Wall_L",
			"primitives":[
				{
					"attributes":{
						"POSITION":0,
						"NORMAL":1,
						"TEXCOORD_0":2,
						"TEXCOORD_1":3
					},
					"indices":4,
					"material":0
				},
				{
					"attributes":{
						"POSITION":5,
						"NORMAL":6,
						"TEXCOORD_0":7,
						"TEXCOORD_1":8
					},
					"indices":9,
					"material":1
				},
				{
					"attributes":{
						"POSITION":10,
						"NORMAL":11,
						"TEXCOORD_0":12,
						"TEXCOORD_1":13
					},
					"indices":14,
					"material":2
				},
				{
					"attributes":{
						"POSITION":15,
						"NORMAL":16,
						"TEXCOORD_0":17,
						"TEXCOORD_1":18
					},
					"indices":19,
					"material":3
				}
			]
		},
		{
			"name":"Bridge",
			"primitives":[
				{
					"attributes":{
						"POSITION":20,
						"NORMAL":21,
						"TEXCOORD_0":22
					},
					"indices":23,
					"material":0
				},
				{
					"attributes":{
						"POSITION":24,
						"NORMAL":25,
						"TEXCOORD_0":26
					},
					"indices":27,
					"material":1
				},
				{
					"attributes":{
						"POSITION":28,
						"NORMAL":29,
						"TEXCOORD_0":30
					},
					"indices":31,
					"material":2
				}
			]
		},
		{
			"name":"Window",
			"primitives":[
				{
					"attributes":{
						"POSITION":32,
						"NORMAL":33,
						"TEXCOORD_0":34
					},
					"indices":35,
					"material":0
				},
				{
					"attributes":{
						"POSITION":36,
						"NORMAL":37,
						"TEXCOORD_0":38
					},
					"indices":39,
					"material":1
				},
				{
					"attributes":{
						"POSITION":40,
						"NORMAL":41,
						"TEXCOORD_0":42
					},
					"indices":43,
					"material":2
				},
				{
					"attributes":{
						"POSITION":44,
						"NORMAL":45,
						"TEXCOORD_0":46
					},
					"indices":47,
					"material":3
				},
				{
					"attributes":{
						"POSITION":48,
						"NORMAL":49,
						"TEXCOORD_0":50
					},
					"indices":51,
					"material":4
				}
			]
		}
	],
	"accessors":[
		{
			"bufferView":0,
			"componentType":5126,
			"count":594,
			"max":[
				7.999996662139893,
				5,
				0.012930543161928654
			],
			"min":[
				-9.5367431640625e-07,
				0,
				-1.7746009826660156
			],
			"type":"VEC3"
		},
		{
			"bufferView":1,
			"componentType":5126,
			"count":594,
			"type":"VEC3"
		},
		{
			"bufferView":2,
			"componentType":5126,
			"count":594,
			"type":"VEC2"
		},
		{
			"bufferView":3,
			"componentType":5126,
			"count":594,
			"type":"VEC2"
		},
		{
			"bufferView":4,
			"componentType":5123,
			"count":1722,
			"type":"SCALAR"
		},
		{
			"bufferView":5,
			"componentType":5126,
			"count":74,
			"max":[
				7.896605968475342,
				4.892636299133301,
				0.04904061555862427
			],
			"min":[
				0.10338970273733139,
				1.5075048208236694,
				-0.15868888795375824
			],
			"type":"VEC3"
		},
		{
			"bufferView":6,
			"componentType":5126,
			"count":74,
			"type":"VEC3"
		},
		{
			"bufferView":7,
			"componentType":5126,
			"count":74,
			"type":"VEC2"
		},
		{
			"bufferView":8,
			"componentType":5126,
			"count":74,
			"type":"VEC2"
		},
		{
			"bufferView":9,
			"componentType":5123,
			"count":120,
			"type":"SCALAR"
		},
		{
			"bufferView":10,
			"componentType":5126,
			"count":200,
			"max":[
				7.951843738555908,
				3.983487129211426,
				-0.04953852295875549
			],
			"min":[
				0.04815200716257095,
				0.6262208223342896,
				-0.15868888795375824
			],
			"type":"VEC3"
		},
		{
			"bufferView":11,
			"componentType":5126,
			"count":200,
			"type":"VEC3"
		},
		{
			"bufferView":12,
			"componentType":5126,
			"count":200,
			"type":"VEC2"
		},
		{
			"bufferView":13,
			"componentType":5126,
			"count":200,
			"type":"VEC2"
		},
		{
			"bufferView":14,
			"componentType":5123,
			"count":540,
			"type":"SCALAR"
		},
		{
			"bufferView":15,
			"componentType":5126,
			"count":65,
			"max":[
				7.5612969398498535,
				2.9525153636932373,
				-0.037762872874736786
			],
			"min":[
				0.4386988580226898,
				0.4776219129562378,
				-0.12062136828899384
			],
			"type":"VEC3"
		},
		{
			"bufferView":16,
			"componentType":5126,
			"count":65,
			"type":"VEC3"
		},
		{
			"bufferView":17,
			"componentType":5126,
			"count":65,
			"type":"VEC2"
		},
		{
			"bufferView":18,
			"componentType":5126,
			"count":65,
			"type":"VEC2"
		},
		{
			"bufferView":19,
			"componentType":5123,
			"count":216,
			"type":"SCALAR"
		},
		{
			"bufferView":20,
			"componentType":5126,
			"count":138,
			"max":[
				4,
				0.025534480810165405,
				6
			],
			"min":[
				0,
				-0.5000012516975403,
				0
			],
			"type":"VEC3"
		},
		{
			"bufferView":21,
			"componentType":5126,
			"count":138,
			"type":"VEC3"
		},
		{
			"bufferView":22,
			"componentType":5126,
			"count":138,
			"type":"VEC2"
		},
		{
			"bufferView":23,
			"componentType":5123,
			"count":270,
			"type":"SCALAR"
		},
		{
			"bufferView":24,
			"componentType":5126,
			"count":78,
			"max":[
				4,
				0.025534480810165405,
				6
			],
			"min":[
				0,
				-0.5000009536743164,
				0
			],
			"type":"VEC3"
		},
		{
			"bufferView":25,
			"componentType":5126,
			"count":78,
			"type":"VEC3"
		},
		{
			"bufferView":26,
			"componentType":5126,
			"count":78,
			"type":"VEC2"
		},
		{
			"bufferView":27,
			"componentType":5123,
			"count":216,
			"type":"SCALAR"
		},
		{
			"bufferView":28,
			"componentType":5126,
			"count":250,
			"max":[
				4,
				0.025534480810165405,
				6
			],
			"min":[
				0,
				-0.5000012516975403,
				0
			],
			"type":"VEC3"
		},
		{
			"bufferView":29,
			"componentType":5126,
			"count":250,
			"type":"VEC3"
		},
		{
			"bufferView":30,
			"componentType":5126,
			"count":250,
			"type":"VEC2"
		},
		{
			"bufferView":31,
			"componentType":5123,
			"count":555,
			"type":"SCALAR"
		},
		{
			"bufferView":32,
			"componentType":5126,
			"count":725,
			"max":[
				4,
				5,
				0.16840799152851105
			],
			"min":[
				-1.2099937407583639e-07,
				2.2351741790771484e-08,
				-0.8348796963691711
			],
			"type":"VEC3"
		},
		{
			"bufferView":33,
			"componentType":5126,
			"count":725,
			"type":"VEC3"
		},
		{
			"bufferView":34,
			"componentType":5126,
			"count":725,
			"type":"VEC2"
		},
		{
			"bufferView":35,
			"componentType":5123,
			"count":1758,
			"type":"SCALAR"
		},
		{
			"bufferView":36,
			"componentType":5126,
			"count":44,
			"max":[
				3.5909676551818848,
				4.636098861694336,
				0.13892433047294617
			],
			"min":[
				0.4090321958065033,
				0.20752081274986267,
				-0.017129968851804733
			],
			"type":"VEC3"
		},
		{
			"bufferView":37,
			"componentType":5126,
			"count":44,
			"type":"VEC3"
		},
		{
			"bufferView":38,
			"componentType":5126,
			"count":44,
			"type":"VEC2"
		},
		{
			"bufferView":39,
			"componentType":5123,
			"count":66,
			"type":"SCALAR"
		},
		{
			"bufferView":40,
			"componentType":5126,
			"count":259,
			"max":[
				3.7556653022766113,
				4.982415676116943,
				0.16840799152851105
			],
			"min":[
				0.24433469772338867,
				0.17607884109020233,
				-0.030667761340737343
			],
			"type":"VEC3"
		},
		{
			"bufferView":41,
			"componentType":5126,
			"count":259,
			"type":"VEC3"
		},
		{
			"bufferView":42,
			"componentType":5126,
			"count":259,
			"type":"VEC2"
		},
		{
			"bufferView":43,
			"componentType":5123,
			"count":468,
			"type":"SCALAR"
		},
		{
			"bufferView":44,
			"componentType":5126,
			"count":52,
			"max":[
				3.8557610511779785,
				4.504329204559326,
				0.09197589010000229
			],
			"min":[
				0.14423897862434387,
				0.041233617812395096,
				-0.5837520360946655
			],
			"type":"VEC3"
		},
		{
			"bufferView":45,
			"componentType":5126,
			"count":52,
			"type":"VEC3"
		},
		{
			"bufferView":46,
			"componentType":5126,
			"count":52,
			"type":"VEC2"
		},
		{
			"bufferView":47,
			"componentType":5123,
			"count":78,
			"type":"SCALAR"
		},
		{
			"bufferView":48,
			"componentType":5126,
			"count":12,
			"max":[
				3.7557787895202637,
				4.499605178833008,
				-0.23028166592121124
			],
			"min":[
				0.24433469772338867,
				0.7604108452796936,
				-0.7779221534729004
			],
			"type":"VEC3"
		},
		{
			"bufferView":49,
			"componentType":5126,
			"count":12,
			"type":"VEC3"
		},
		{
			"bufferView":50,
			"componentType":5126,
			"count":12,
			"type":"VEC2"
		},
		{
			"bufferView":51,
			"componentType":5123,
			"count":18,
			"type":"SCALAR"
		}
	],
	"bufferViews":[
		{
			"buffer":0,
			"byteLength":7128,
			"byteOffset":0,
			"target":34962
		},
		{
			"buffer":0,
			"byteLength":7128,
			"byteOffset":7128,
			"target":34962
		},
		{
			"buffer":0,
			"byteLength":4752,
			"byteOffset":14256,
			"target":34962
		},
		{
			"buffer":0,
			"byteLength":4752,
			"byteOffset":19008,
			"target":34962
		},
		{
			"buffer":0,
			"byteLength":3444,
			"byteOffset":23760,
			"target":34963
		},
		{
			"buffer":0,
			"byteLength":888,
			"byteOffset":27204,
			"target":34962
		},
		{
			"buffer":0,
			"byteLength":888,
			"byteOffset":28092,
			"target":34962
		},
		{
			"buffer":0,
			"byteLength":592,
			"byteOffset":28980,
			"target":34962
		},
		{
			"buffer":0,
			"byteLength":592,
			"byteOffset":29572,
			"target":34962
		},
		{
			"buffer":0,
			"byteLength":240,
			"byteOffset":30164,
			"target":34963
		},
		{
			"buffer":0,
			"byteLength":2400,
			"byteOffset":30404,
			"target":34962
		},
		{
			"buffer":0,
			"byteLength":2400,
			"byteOffset":32804,
			"target":34962
		},
		{
			"buffer":0,
			"byteLength":1600,
			"byteOffset":35204,
			"target":34962
		},
		{
			"buffer":0,
			"byteLength":1600,
			"byteOffset":36804,
			"target":34962
		},
		{
			"buffer":0,
			"byteLength":1080,
			"byteOffset":38404,
			"target":34963
		},
		{
			"buffer":0,
			"byteLength":780,
			"byteOffset":39484,
			"target":34962
		},
		{
			"buffer":0,
			"byteLength":780,
			"byteOffset":40264,
			"target":34962
		},
		{
			"buffer":0,
			"byteLength":520,
			"byteOffset":41044,
			"target":34962
		},
		{
			"buffer":0,
			"byteLength":520,
			"byteOffset":41564,
			"target":34962
		},
		{
			"buffer":0,
			"byteLength":432,
			"byteOffset":42084,
			"target":34963
		},
		{
			"buffer":0,
			"byteLength":1656,
			"byteOffset":42516,
			"target":34962
		},
		{
			"buffer":0,
			"byteLength":1656,
			"byteOffset":44172,
			"target":34962
		},
		{
			"buffer":0,
			"byteLength":1104,
			"byteOffset":45828,
			"target":34962
		},
		{
			"buffer":0,
			"byteLength":540,
			"byteOffset":46932,
			"target":34963
		},
		{
			"buffer":0,
			"byteLength":936,
			"byteOffset":47472,
			"target":34962
		},
		{
			"buffer":0,
			"byteLength":936,
			"byteOffset":48408,
			"target":34962
		},
		{
			"buffer":0,
			"byteLength":624,
			"byteOffset":49344,
			"target":34962
		},
		{
			"buffer":0,
			"byteLength":432,
			"byteOffset":49968,
			"target":34963
		},
		{
			"buffer":0,
			"byteLength":3000,
			"byteOffset":50400,
			"target":34962
		},
		{
			"buffer":0,
			"byteLength":3000,
			"byteOffset":53400,
			"target":34962
		},
		{
			"buffer":0,
			"byteLength":2000,
			"byteOffset":56400,
			"target":34962
		},
		{
			"buffer":0,
			"byteLength":1110,
			"byteOffset":58400,
			"target":34963
		},
		{
			"buffer":0,
			"byteLength":8700,
			"byteOffset":59512,
			"target":34962
		},
		{
			"buffer":0,
			"byteLength":8700,
			"byteOffset":68212,
			"target":34962
		},
		{
			"buffer":0,
			"byteLength":5800,
			"byteOffset":76912,
			"target":34962
		},
		{
			"buffer":0,
			"byteLength":3516,
			"byteOffset":82712,
			"target":34963
		},
		{
			"buffer":0,
			"byteLength":528,
			"byteOffset":86228,
			"target":34962
		},
		{
			"buffer":0,
			"byteLength":528,
			"byteOffset":86756,
			"target":34962
		},
		{
			"buffer":0,
			"byteLength":352,
			"byteOffset":87284,
			"target":34962
		},
		{
			"buffer":0,
			"byteLength":132,
			"byteOffset":87636,
			"target":34963
		},
		{
			"buffer":0,
			"byteLength":3108,
			"byteOffset":87768,
			"target":34962
		},
		{
			"buffer":0,
			"byteLength":3108,
			"byteOffset":90876,
			"target":34962
		},
		{
			"buffer":0,
			"byteLength":2072,
			"byteOffset":93984,
			"target":34962
		},
		{
			"buffer":0,
			"byteLength":936,
			"byteOffset":96056,
			"target":34963
		},
		{
			"buffer":0,
			"byteLength":624,
			"byteOffset":96992,
			"target":34962
		},
		{
			"buffer":0,
			"byteLength":624,
			"byteOffset":97616,
			"target":34962
		},
		{
			"buffer":0,
			"byteLength":416,
			"byteOffset":98240,
			"target":34962
		},
		{
			"buffer":0,
			"byteLength":156,
			"byteOffset":98656,
			"target":34963
		},
		{
			"buffer":0,
			"byteLength":144,
			"byteOffset":98812,
			"target":34962
		},
		{
			"buffer":0,
			"byteLength":144,
			"byteOffset":98956,
			"target":34962
		},
		{
			"buffer":0,
			"byteLength":96,
			"byteOffset":99100,
			"target":34962
		},
		{
			"buffer":0,
			"byteLength":36,
			"byteOffset":99196,
			"target":34963
		}
	],
	"buffers":[
		{
			"byteLength":99232,
			"uri":"Modkit.bin"
		}
	]
}
